<svg version="1.0" xmlns="http://www.w3.org/2000/svg" width="666.667" height="666.667" viewBox="0 0 500 500"><path d="M223.3 117.9c-11.7 20.2-21.5 37.5-21.9 38.4-.6 1.5 1.1 1.7 18.5 1.7H239v15h13v-15h18.5c11.6 0 18.5-.4 18.5-1 0-1.3-43.2-76-44-76-.3 0-10.1 16.6-21.7 36.9zM261 123c0 .6-6 1-16 1s-16-.4-16-1 6-1 16-1 16 .4 16 1zm0 10c0 .6-6 1-16 1s-16-.4-16-1 6-1 16-1 16 .4 16 1zm0 10c0 .6-6 1-16 1s-16-.4-16-1 6-1 16-1 16 .4 16 1zM55 198.7c0 .3 11.3 23.7 25.2 52 15.4 31.4 25.5 50.9 25.9 50.1 2.5-4.5 47.9-101.1 47.9-101.9 0-.6-1.1-.9-2.5-.7-2.3.3-4.7 4.9-23.6 44.3-11.7 24.2-21.5 44.4-22 44.9-.4.5-10.9-19.4-23.3-44.3C61.8 201.7 59.8 198 57.5 198c-1.4 0-2.5.3-2.5.7zm117.8-.1c-.5.4-.8 23.8-.8 52.1V302h24.5c22.4 0 24.9-.2 30.2-2.1 7.1-2.6 14.3-9.6 16.1-15.5 1.8-6 1.5-15.2-.7-19.9-3.2-7-13-14.5-18.9-14.5-1 0 0-1.3 2.5-3.5 6.1-5.2 8.7-11.4 8.8-20.5 0-12.7-5.8-21.5-16.7-25.7-3.3-1.2-9.1-1.7-24.3-2.1-11-.2-20.3 0-20.7.4zm40.4 6.5c13.4 2.9 19.8 18.6 13.1 32-2.3 4.4-3.7 5.8-8.2 8.1-5.2 2.7-5.7 2.8-22.7 2.8H178v-44h15c8.2 0 17.3.5 20.2 1.1zm13.7 51.9c7.8 3.4 11.1 8.9 11.1 18.2 0 7.5-1.2 10.8-5.7 15-5.3 5.1-9.5 5.8-32.9 5.8H178v-42.2l21.8.4c20.3.3 22.1.5 27.1 2.8zm35.8-58.3c-.4.3-.7 1.7-.7 3v2.3h37.1c23.6 0 36.9.4 36.7 1-.1.5-16.5 21.7-36.3 47.1-19.8 25.4-36.6 47-37.3 48-1.3 1.8 0 1.9 41.2 1.9H346v-6l-36.5-.2-36.5-.3 37.5-48c20.6-26.4 37.4-48.3 37.5-48.8 0-.9-84.4-1-85.3 0zM370 250v52h63v-6h-57v-42.2l24.8.3 24.7.3v-5.9l-24.7-.3-24.8-.2v-44h57v-6h-63v52zm-154 70.7c0 3.7 4.5 7.3 9.2 7.3 2.8 0 3.8-.4 3.4-1.3-.3-.6-.9-2-1.2-3-.8-2.3-2.3-2.2-5.2.5-2.3 2.1-2.5 2.2-1.7.3 2.1-5.4 1.9-6.4-1.4-6.3-2.6.1-3.1.5-3.1 2.5zm16.2-.5c.2 1.3 1 2.3 1.8 2.3s1.6-1 1.8-2.3c.3-1.7-.2-2.2-1.8-2.2s-2.1.5-1.8 2.2zm2.8-.2c0 .5-.4 1-1 1-.5 0-1-.5-1-1 0-.6.5-1 1-1 .6 0 1 .4 1 1zm33-.1c0 2.5 1.9 3.8 3.1 2 1.2-1.9.6-3.3-1.4-3.7-1.1-.2-1.7.3-1.7 1.7zm2.5.1c.3.5.1 1-.4 1-.6 0-1.1-.5-1.1-1 0-.6.2-1 .4-1 .3 0 .8.4 1.1 1zm29.6 4.1c-1.4 3.3-3.6 5.9-6.1 7.5-3.7 2.4-4.4 4.4-1.8 4.4 2.4 0 8-5.4 10.3-10 2.9-5.7 2.9-5.6 1.2-6.3-.8-.3-2.1 1.3-3.6 4.4zm-97.1-1.7c-1.5 4.1-1.2 11.9.6 14.2 1.2 1.5 1.5 1.6 1 .2-1.5-4.8-1.7-9-.6-12.3 1.4-4.2.5-6.1-1-2.1zm45.2 3.4c5.4 9.6 6.3 10.8 7.3 9.2.5-.8.4-1.1-.2-.7-.8.5-8.3-11-8.3-12.8 0-.3 3.4-.5 7.5-.5s7.5.3 7.5.6c0 .4-1.4 3.2-3.2 6.3-1.7 3.1-2.6 5.1-2.1 4.6.6-.6 2.5-3.6 4.3-6.8l3.2-5.7h-19.3l3.3 5.8zm33.4-3.3c1 3.8 1.1 9.2.1 13-.7 2.9-.7 2.9.9 1 1.9-2.4 1.6-13.8-.5-15.7-1.1-1.1-1.2-.8-.5 1.7zm-71.3 1c.4.8.2 1.7-.3 2-2.2 1.3-.8 2.5 3 2.5 4.6 0 5.4-1.9 1.8-4.4-2.8-2-5.2-2.1-4.5-.1zm-26.6.2c-.3.5 1.5 3 3.9 5.7 3.6 4.1 4.4 4.7 5 3.2.5-1.2-.5-2.9-3.2-5.7-3.8-3.9-4.9-4.5-5.7-3.2zm29.2 7.2l-2.4 1.9 2.5 2.1c2.3 1.8 2.6 1.9 3.8.4 1.6-2.3 1.5-6.3-.2-6.3-.8 0-2.4.9-3.7 1.9zm7.1.8c0 1.6.5 3.5 1 4.3.9 1.3 1.2 1.3 2.4-.3.7-.9 1.8-1.7 2.5-1.7 1.9 0 1.2-1.7-1.4-3.4-3.4-2.3-4.5-2-4.5 1.1z"/></svg>