<?xml version="1.0" standalone="no"?>
<!DOCTYPE svg PUBLIC "-//W3C//DTD SVG 20010904//EN"
 "http://www.w3.org/TR/2001/REC-SVG-20010904/DTD/svg10.dtd">
<svg version="1.0" xmlns="http://www.w3.org/2000/svg"
 width="500.000000pt" height="500.000000pt" viewBox="0 0 500.000000 500.000000"
 preserveAspectRatio="xMidYMid meet">
<metadata>
Created by potrace 1.11, written by Peter Selinger 2001-2013
</metadata>
<g transform="translate(0.000000,500.000000) scale(0.100000,-0.100000)"
fill="#000000" stroke="none">
<path d="M2233 3821 c-117 -202 -215 -375 -219 -384 -6 -15 11 -17 185 -17
l191 0 0 -75 0 -75 65 0 65 0 0 75 0 75 185 0 c116 0 185 4 185 10 0 13 -432
760 -440 760 -3 0 -101 -166 -217 -369z m377 -51 c0 -6 -60 -10 -160 -10 -100
0 -160 4 -160 10 0 6 60 10 160 10 100 0 160 -4 160 -10z m0 -100 c0 -6 -60
-10 -160 -10 -100 0 -160 4 -160 10 0 6 60 10 160 10 100 0 160 -4 160 -10z
m0 -100 c0 -6 -60 -10 -160 -10 -100 0 -160 4 -160 10 0 6 60 10 160 10 100 0
160 -4 160 -10z"/>
<path d="M550 3013 c0 -3 113 -237 252 -520 154 -314 255 -509 259 -501 25 45
479 1011 479 1019 0 6 -11 9 -25 7 -23 -3 -47 -49 -236 -443 -117 -242 -215
-444 -220 -449 -4 -5 -109 194 -233 443 -208 414 -228 451 -251 451 -14 0 -25
-3 -25 -7z"/>
<path d="M1728 3014 c-5 -4 -8 -238 -8 -521 l0 -513 245 0 c224 0 249 2 302
21 71 26 143 96 161 155 18 60 15 152 -7 199 -32 70 -130 145 -189 145 -10 0
0 13 25 35 61 52 87 114 88 205 0 127 -58 215 -167 257 -33 12 -91 17 -243 21
-110 2 -203 0 -207 -4z m404 -65 c134 -29 198 -186 131 -320 -23 -44 -37 -58
-82 -81 -52 -27 -57 -28 -227 -28 l-174 0 0 220 0 220 150 0 c82 0 173 -5 202
-11z m137 -519 c78 -34 111 -89 111 -182 0 -75 -12 -108 -57 -150 -53 -51 -95
-58 -329 -58 l-214 0 0 211 0 211 218 -4 c203 -3 221 -5 271 -28z"/>
<path d="M2627 3013 c-4 -3 -7 -17 -7 -30 l0 -23 371 0 c236 0 369 -4 367 -10
-1 -5 -165 -217 -363 -471 -198 -254 -366 -470 -373 -480 -13 -18 0 -19 412
-19 l426 0 0 30 0 30 -365 2 -365 3 375 480 c206 264 374 483 375 488 0 9
-844 10 -853 0z"/>
<path d="M3700 2500 l0 -520 315 0 315 0 0 30 0 30 -285 0 -285 0 0 211 0 211
248 -3 247 -3 0 30 0 29 -247 3 -248 2 0 220 0 220 285 0 285 0 0 30 0 30
-315 0 -315 0 0 -520z"/>
<path d="M2160 1793 c0 -37 45 -73 92 -73 28 0 38 4 34 13 -3 6 -9 20 -12 30
-8 23 -23 22 -52 -5 -23 -21 -25 -22 -17 -3 21 54 19 64 -14 63 -26 -1 -31 -5
-31 -25z"/>
<path d="M2322 1798 c2 -13 10 -23 18 -23 8 0 16 10 18 23 3 17 -2 22 -18 22
-16 0 -21 -5 -18 -22z m28 2 c0 -5 -4 -10 -10 -10 -5 0 -10 5 -10 10 0 6 5 10
10 10 6 0 10 -4 10 -10z"/>
<path d="M2680 1801 c0 -25 19 -38 31 -20 12 19 6 33 -14 37 -11 2 -17 -3 -17
-17z m25 -1 c3 -5 1 -10 -4 -10 -6 0 -11 5 -11 10 0 6 2 10 4 10 3 0 8 -4 11
-10z"/>
<path d="M3001 1759 c-14 -33 -36 -59 -61 -75 -37 -24 -44 -44 -18 -44 24 0
80 54 103 100 29 57 29 56 12 63 -8 3 -21 -13 -36 -44z"/>
<path d="M2030 1776 c-15 -41 -12 -119 6 -142 12 -15 15 -16 10 -2 -15 48 -17
90 -6 123 14 42 5 61 -10 21z"/>
<path d="M2482 1742 c54 -96 63 -108 73 -92 5 8 4 11 -2 7 -8 -5 -83 110 -83
128 0 3 34 5 75 5 41 0 75 -3 75 -6 0 -4 -14 -32 -32 -63 -17 -31 -26 -51 -21
-46 6 6 25 36 43 68 l32 57 -97 0 -96 0 33 -58z"/>
<path d="M2816 1775 c10 -38 11 -92 1 -130 -7 -29 -7 -29 9 -10 19 24 16 138
-5 157 -11 11 -12 8 -5 -17z"/>
<path d="M2103 1765 c4 -8 2 -17 -3 -20 -22 -13 -8 -25 30 -25 46 0 54 19 18
44 -28 20 -52 21 -45 1z"/>
<path d="M1837 1763 c-3 -5 15 -30 39 -57 36 -41 44 -47 50 -32 5 12 -5 29
-32 57 -38 39 -49 45 -57 32z"/>
<path d="M2129 1691 l-24 -19 25 -21 c23 -18 26 -19 38 -4 16 23 15 63 -2 63
-8 0 -24 -9 -37 -19z"/>
<path d="M2200 1683 c0 -16 5 -35 10 -43 9 -13 12 -13 24 3 7 9 18 17 25 17
19 0 12 17 -14 34 -34 23 -45 20 -45 -11z"/>
</g>
</svg>
